# Blender v2.75 (sub 0) OBJ File: ''
# www.blender.org
mtllib duster_frame_2.mtl
o Cube_Cube.001
v 0.708749 1.320067 0.735384
v 0.666561 1.320067 0.735384
v 0.666561 0.009077 -0.575607
v 0.708749 0.168854 -0.735384
v 0.708749 0.009077 -0.575607
v 0.666561 1.479844 0.575606
v 0.666561 0.168854 -0.735384
v 0.708749 1.479843 0.575608
v 0.708749 1.479844 -0.575606
v 0.666561 1.479844 -0.575607
v 0.666561 0.168853 0.735384
v 0.708749 0.009077 0.575607
v 0.708749 0.168854 0.735384
v 0.666561 1.320067 -0.735384
v 0.666561 0.009077 0.575607
v 0.708749 1.320068 -0.735383
v -0.666561 0.009077 -0.575607
v -0.666561 1.320067 0.735384
v -0.708749 1.320067 0.735384
v -0.708749 0.009077 -0.575607
v -0.708749 0.168854 -0.735384
v -0.666561 0.168854 -0.735384
v -0.708749 1.479843 0.575607
v -0.666561 1.479844 0.575606
v -0.708749 0.168854 0.735384
v -0.666561 0.168853 0.735383
v -0.666561 1.479844 -0.575607
v -0.708749 0.009077 0.575607
v -0.666561 0.009077 0.575607
v -0.708749 1.320068 -0.735383
v -0.708749 1.479844 -0.575607
v -0.735384 1.320067 0.708749
v -0.735383 1.320067 0.666561
v 0.575607 0.009077 0.666561
v 0.735384 0.168854 0.708749
v 0.575607 0.009077 0.708749
v 0.735384 0.168854 0.666561
v -0.575606 1.479844 0.666561
v -0.575607 1.479843 0.708749
v 0.575606 1.479844 0.708749
v 0.575607 1.479844 0.666561
v -0.735383 0.168853 0.666561
v -0.575607 0.009077 0.708749
v -0.735384 0.168854 0.708749
v -0.575607 0.009077 0.666561
v 0.735384 1.320067 0.666561
v 0.735383 1.320068 0.708749
v 0.575607 0.009077 -0.666561
v -0.735383 1.320067 -0.666561
v -0.735384 1.320067 -0.708748
v 0.575607 0.009077 -0.708749
v 0.735384 0.168854 -0.708749
v 0.735384 0.168854 -0.666561
v -0.575607 1.479844 -0.708748
v -0.575606 1.479844 -0.666561
v -0.735383 0.168853 -0.666561
v 0.575607 1.479844 -0.666561
v 0.575606 1.479844 -0.708748
v -0.735384 0.168854 -0.708749
v -0.575607 0.009077 -0.708749
v -0.575607 0.009077 -0.666561
v 0.735383 1.320068 -0.708748
v 0.735384 1.320067 -0.666561
v 0.442969 2.175400 -0.442968
v 0.442969 2.175400 -0.569531
v 0.442969 1.580108 -0.569531
v 0.569531 1.580108 -0.569531
v 0.569531 1.580108 -0.442968
v 0.442969 1.580108 -0.442968
v 0.569531 2.175400 -0.569531
v 0.569531 2.175400 -0.442968
v 0.569531 1.580108 -0.569531
v 0.569531 1.580108 -0.442968
v 0.442969 1.580108 -0.442968
v -0.442969 1.580108 -0.569531
v -0.442969 2.175400 -0.569531
v -0.442969 2.175400 -0.442968
v -0.569531 1.580108 -0.569531
v -0.442969 1.580108 -0.442968
v -0.569531 1.580108 -0.442968
v -0.569531 2.175400 -0.442968
v -0.569531 2.175400 -0.569531
v -0.569531 1.580108 -0.569531
v -0.442969 1.580108 -0.569531
v -0.442969 1.580108 -0.442968
v 0.442969 1.580108 0.569531
v 0.442969 2.175400 0.569532
v 0.442969 2.175400 0.442969
v 0.569531 1.580108 0.569531
v 0.442969 1.580108 0.442969
v 0.569531 1.580108 0.442969
v 0.569531 2.175400 0.442969
v 0.569531 2.175400 0.569532
v 0.569531 1.580108 0.569531
v 0.442969 1.580108 0.569531
v 0.442969 1.580108 0.442969
v -0.442969 2.175400 0.442969
v -0.442969 2.175400 0.569532
v -0.442969 1.580108 0.569531
v -0.569531 1.580108 0.569531
v -0.569531 1.580108 0.442969
v -0.442969 1.580108 0.442969
v -0.569531 2.175400 0.569532
v -0.569531 2.175400 0.442969
v -0.569531 1.580108 0.569531
v -0.569531 1.580108 0.442969
v -0.442969 1.580108 0.442969
v -0.795656 1.653750 -0.795656
v -0.795656 1.316250 -0.795656
v -0.795656 1.316250 0.795656
v 0.795656 1.653750 -0.795656
v 0.795656 1.316250 -0.795656
v 0.795656 1.653750 0.795657
v 0.795656 1.316250 0.795656
v -0.795656 1.653750 0.795657
v 0.601594 1.316250 0.601594
v 0.601594 1.400625 0.601594
v 0.601594 1.400625 -0.601593
v -0.601594 1.316250 0.601594
v -0.601594 1.316250 -0.601593
v 0.601594 1.316250 -0.601593
v -0.601594 1.400625 -0.601593
v -0.601594 1.400625 0.601594
v 0.590625 1.687500 -0.590625
v 0.590625 1.687500 -0.759375
v 0.590625 0.000000 -0.759375
v 0.759375 0.000000 -0.759375
v 0.759375 0.000000 -0.590625
v 0.590625 0.000000 -0.590625
v 0.759375 1.687500 -0.759375
v 0.759374 1.687500 -0.590624
v 0.759375 0.000000 -0.759375
v 0.759375 0.000000 -0.590625
v 0.590625 0.000000 -0.590625
v 0.843750 0.000000 -0.843750
v 0.843750 0.000000 -0.506250
v 0.506250 0.000000 -0.506250
v 0.506250 0.067500 -0.843750
v 0.506249 0.067500 -0.506251
v 0.843749 0.067500 -0.506249
v 0.843751 0.067500 -0.843749
v 0.506251 0.000000 -0.843751
v -0.590625 0.000000 -0.759375
v -0.590625 1.687500 -0.759375
v -0.590625 1.687500 -0.590625
v -0.759375 0.000000 -0.759375
v -0.590625 0.000000 -0.590625
v -0.759375 0.000000 -0.590625
v -0.759374 1.687500 -0.590624
v -0.759375 1.687500 -0.759375
v -0.759375 0.000000 -0.759375
v -0.590625 0.000000 -0.759375
v -0.590625 0.000000 -0.590625
v -0.843750 0.000000 -0.843750
v -0.506251 0.000000 -0.843751
v -0.506250 0.000000 -0.506250
v -0.843749 0.067500 -0.506249
v -0.506249 0.067500 -0.506251
v -0.506250 0.067500 -0.843750
v -0.843750 0.000000 -0.506250
v -0.843751 0.067500 -0.843749
v 0.590625 -0.000000 0.759375
v 0.590625 1.687500 0.759375
v 0.590625 1.687500 0.590625
v 0.759375 -0.000000 0.759375
v 0.590625 -0.000000 0.590625
v 0.759375 -0.000000 0.590625
v 0.759374 1.687500 0.590625
v 0.759375 1.687500 0.759375
v 0.759375 -0.000000 0.759375
v 0.590625 -0.000000 0.759375
v 0.590625 -0.000000 0.590625
v 0.843750 -0.000000 0.843750
v 0.506251 -0.000000 0.843751
v 0.506250 -0.000000 0.506250
v 0.843749 0.067500 0.506249
v 0.506249 0.067500 0.506251
v 0.506250 0.067500 0.843750
v 0.843750 -0.000000 0.506250
v 0.843751 0.067500 0.843749
v -0.590625 1.687500 0.590625
v -0.590625 1.687500 0.759375
v -0.590625 -0.000000 0.759375
v -0.759375 -0.000000 0.759375
v -0.759375 -0.000000 0.590625
v -0.590625 -0.000000 0.590625
v -0.759375 1.687500 0.759375
v -0.759374 1.687500 0.590625
v -0.759375 -0.000000 0.759375
v -0.759375 -0.000000 0.590625
v -0.590625 -0.000000 0.590625
v -0.843750 -0.000000 0.843750
v -0.843750 -0.000000 0.506250
v -0.506250 -0.000000 0.506250
v -0.506250 0.067500 0.843750
v -0.506249 0.067500 0.506251
v -0.843749 0.067500 0.506249
v -0.843751 0.067500 0.843749
v -0.506251 -0.000000 0.843751
v -0.666561 1.320067 -0.735384
v 0.442969 1.580108 -0.569531
v -0.569531 1.580108 -0.442968
v 0.569531 1.580108 0.442969
v -0.442969 1.580108 0.569531
v 0.590625 0.000000 -0.759375
v -0.759375 0.000000 -0.590625
v 0.759375 -0.000000 0.590625
v -0.590625 -0.000000 0.759375
vn 0.000000 -0.707100 0.707100
vn 0.000000 -0.707100 -0.707100
vn -1.000000 -0.000000 0.000000
vn 0.000000 0.707100 -0.707100
vn -0.000000 0.707100 0.707100
vn 1.000000 0.000000 0.000000
vn -0.707100 -0.707100 -0.000000
vn 0.707100 -0.707100 -0.000000
vn -0.000000 0.000000 -1.000000
vn 0.707100 0.707100 0.000000
vn -0.707100 0.707100 -0.000000
vn 0.000000 -0.000000 1.000000
vn 0.000000 -1.000000 0.000000
vn 0.000000 1.000000 0.000000
usemtl None
s 1
f 1//1 2//1 3//1
f 4//2 5//2 3//2
f 6//3 7//3 3//3
f 6//4 8//4 4//4
f 2//5 1//5 8//5
f 4//6 8//6 1//6
f 9//5 10//5 11//5
f 12//1 13//1 11//1
f 14//3 15//3 11//3
f 15//2 14//2 16//2
f 10//4 9//4 16//4
f 12//6 16//6 9//6
f 17//1 18//1 19//1
f 17//2 20//2 21//2
f 18//6 17//6 22//6
f 21//4 23//4 24//4
f 23//5 19//5 18//5
f 20//3 19//3 23//3
f 25//5 26//5 27//5
f 26//1 25//1 28//1
f 27//6 26//6 29//6
f 29//2 28//2 30//2
f 30//4 31//4 27//4
f 28//3 25//3 31//3
f 32//7 33//7 34//7
f 35//8 36//8 34//8
f 37//9 34//9 33//9
f 38//10 39//10 35//10
f 33//11 32//11 39//11
f 35//12 39//12 32//12
f 40//11 41//11 42//11
f 43//7 44//7 42//7
f 45//9 42//9 41//9
f 46//8 47//8 43//8
f 41//10 40//10 47//10
f 47//12 40//12 44//12
f 48//7 49//7 50//7
f 48//8 51//8 52//8
f 49//12 48//12 53//12
f 52//10 54//10 55//10
f 54//11 50//11 49//11
f 51//9 50//9 54//9
f 56//11 57//11 58//11
f 56//7 59//7 60//7
f 57//12 56//12 61//12
f 60//8 62//8 63//8
f 62//10 58//10 57//10
f 59//9 58//9 62//9
f 64//3 65//3 66//3
f 67//13 68//13 69//13
f 67//9 66//9 65//9
f 70//6 71//6 68//6
f 70//14 65//14 64//14
f 71//12 64//12 69//12
f 72//13 73//13 74//13
f 75//6 76//6 77//6
f 78//13 75//13 79//13
f 76//9 75//9 78//9
f 80//3 81//3 82//3
f 82//14 81//14 77//14
f 79//12 77//12 81//12
f 83//13 84//13 85//13
f 86//3 87//3 88//3
f 89//13 86//13 90//13
f 87//12 86//12 89//12
f 91//6 92//6 93//6
f 93//14 92//14 88//14
f 90//9 88//9 92//9
f 94//13 95//13 96//13
f 97//6 98//6 99//6
f 100//13 101//13 102//13
f 100//12 99//12 98//12
f 103//3 104//3 101//3
f 103//14 98//14 97//14
f 104//9 97//9 102//9
f 105//13 106//13 107//13
f 108//3 109//3 110//3
f 111//9 112//9 109//9
f 113//6 114//6 112//6
f 115//12 110//12 114//12
f 116//3 117//3 118//3
f 111//14 108//14 115//14
f 119//13 110//13 109//13
f 120//13 109//13 112//13
f 121//13 112//13 114//13
f 116//13 114//13 110//13
f 122//13 118//13 117//13
f 120//6 122//6 123//6
f 119//9 123//9 117//9
f 121//12 118//12 122//12
f 124//3 125//3 126//3
f 127//13 128//13 129//13
f 127//9 126//9 125//9
f 130//6 131//6 128//6
f 125//14 124//14 131//14
f 131//12 124//12 129//12
f 132//13 133//13 134//13
f 135//13 136//13 137//13
f 138//14 139//14 140//14
f 141//6 140//6 136//6
f 140//12 139//12 137//12
f 137//3 139//3 138//3
f 135//9 142//9 138//9
f 143//6 144//6 145//6
f 146//13 143//13 147//13
f 144//9 143//9 146//9
f 148//3 149//3 150//3
f 149//14 145//14 144//14
f 147//12 145//12 149//12
f 151//13 152//13 153//13
f 154//13 155//13 156//13
f 157//14 158//14 159//14
f 160//3 157//3 161//3
f 156//12 158//12 157//12
f 156//6 155//6 159//6
f 159//9 155//9 154//9
f 162//3 163//3 164//3
f 165//13 162//13 166//13
f 163//12 162//12 165//12
f 167//6 168//6 169//6
f 168//14 164//14 163//14
f 166//9 164//9 168//9
f 170//13 171//13 172//13
f 173//13 174//13 175//13
f 176//14 177//14 178//14
f 179//6 176//6 180//6
f 175//9 177//9 176//9
f 175//3 174//3 178//3
f 178//12 174//12 173//12
f 181//6 182//6 183//6
f 184//13 185//13 186//13
f 184//12 183//12 182//12
f 187//3 188//3 185//3
f 182//14 181//14 188//14
f 188//9 181//9 186//9
f 189//13 190//13 191//13
f 192//13 193//13 194//13
f 195//14 196//14 197//14
f 198//3 197//3 193//3
f 197//9 196//9 194//9
f 194//6 196//6 195//6
f 192//12 199//12 195//12
f 5//1 1//1 3//1
f 7//2 4//2 3//2
f 2//3 6//3 3//3
f 7//4 6//4 4//4
f 6//5 2//5 8//5
f 5//6 4//6 1//6
f 13//5 9//5 11//5
f 15//1 12//1 11//1
f 10//3 14//3 11//3
f 12//2 15//2 16//2
f 14//4 10//4 16//4
f 13//6 12//6 9//6
f 20//1 17//1 19//1
f 22//2 17//2 21//2
f 24//6 18//6 22//6
f 22//4 21//4 24//4
f 24//5 23//5 18//5
f 21//3 20//3 23//3
f 31//5 25//5 27//5
f 29//1 26//1 28//1
f 200//6 27//6 29//6
f 200//2 29//2 30//2
f 200//4 30//4 27//4
f 30//3 28//3 31//3
f 36//7 32//7 34//7
f 37//8 35//8 34//8
f 38//9 37//9 33//9
f 37//10 38//10 35//10
f 38//11 33//11 39//11
f 36//12 35//12 32//12
f 44//11 40//11 42//11
f 45//7 43//7 42//7
f 46//9 45//9 41//9
f 45//8 46//8 43//8
f 46//10 41//10 47//10
f 43//12 47//12 44//12
f 51//7 48//7 50//7
f 53//8 48//8 52//8
f 55//12 49//12 53//12
f 53//10 52//10 55//10
f 55//11 54//11 49//11
f 52//9 51//9 54//9
f 59//11 56//11 58//11
f 61//7 56//7 60//7
f 63//12 57//12 61//12
f 61//8 60//8 63//8
f 63//10 62//10 57//10
f 60//9 59//9 62//9
f 69//3 64//3 66//3
f 66//13 67//13 69//13
f 70//9 67//9 65//9
f 67//6 70//6 68//6
f 71//14 70//14 64//14
f 68//12 71//12 69//12
f 201//13 72//13 74//13
f 79//6 75//6 77//6
f 80//13 78//13 79//13
f 82//9 76//9 78//9
f 78//3 80//3 82//3
f 76//14 82//14 77//14
f 80//12 79//12 81//12
f 202//13 83//13 85//13
f 90//3 86//3 88//3
f 91//13 89//13 90//13
f 93//12 87//12 89//12
f 89//6 91//6 93//6
f 87//14 93//14 88//14
f 91//9 90//9 92//9
f 203//13 94//13 96//13
f 102//6 97//6 99//6
f 99//13 100//13 102//13
f 103//12 100//12 98//12
f 100//3 103//3 101//3
f 104//14 103//14 97//14
f 101//9 104//9 102//9
f 204//13 105//13 107//13
f 115//3 108//3 110//3
f 108//9 111//9 109//9
f 111//6 113//6 112//6
f 113//12 115//12 114//12
f 121//3 116//3 118//3
f 113//14 111//14 115//14
f 120//13 119//13 109//13
f 121//13 120//13 112//13
f 116//13 121//13 114//13
f 119//13 116//13 110//13
f 123//13 122//13 117//13
f 119//6 120//6 123//6
f 116//9 119//9 117//9
f 120//12 121//12 122//12
f 129//3 124//3 126//3
f 126//13 127//13 129//13
f 130//9 127//9 125//9
f 127//6 130//6 128//6
f 130//14 125//14 131//14
f 128//12 131//12 129//12
f 205//13 132//13 134//13
f 142//13 135//13 137//13
f 141//14 138//14 140//14
f 135//6 141//6 136//6
f 136//12 140//12 137//12
f 142//3 137//3 138//3
f 141//9 135//9 138//9
f 147//6 143//6 145//6
f 148//13 146//13 147//13
f 150//9 144//9 146//9
f 146//3 148//3 150//3
f 150//14 149//14 144//14
f 148//12 147//12 149//12
f 206//13 151//13 153//13
f 160//13 154//13 156//13
f 161//14 157//14 159//14
f 154//3 160//3 161//3
f 160//12 156//12 157//12
f 158//6 156//6 159//6
f 161//9 159//9 154//9
f 166//3 162//3 164//3
f 167//13 165//13 166//13
f 169//12 163//12 165//12
f 165//6 167//6 169//6
f 169//14 168//14 163//14
f 167//9 166//9 168//9
f 207//13 170//13 172//13
f 179//13 173//13 175//13
f 180//14 176//14 178//14
f 173//6 179//6 180//6
f 179//9 175//9 176//9
f 177//3 175//3 178//3
f 180//12 178//12 173//12
f 186//6 181//6 183//6
f 183//13 184//13 186//13
f 187//12 184//12 182//12
f 184//3 187//3 185//3
f 187//14 182//14 188//14
f 185//9 188//9 186//9
f 208//13 189//13 191//13
f 199//13 192//13 194//13
f 198//14 195//14 197//14
f 192//3 198//3 193//3
f 193//9 197//9 194//9
f 199//6 194//6 195//6
f 198//12 192//12 195//12
